<?xml version="1.0" encoding="UTF-8"?>
<svg xmlns="http://www.w3.org/2000/svg" 
     version="1.2" 
     baseProfile="tiny-ps" 
     viewBox="0 0 376 376">
       <title>Husky Irrigation</title>
  <desc>Vector logo for Husky Irrigation, Dallas-Fort Worth licensed irrigation contractor.</desc>
  <path d="M0 0 C124.08 0 248.16 0 376 0 C376 124.08 376 248.16 376 376 C251.92 376 127.84 376 0 376 C0 251.92 0 127.84 0 0 Z " fill="#FEFEFE" transform="translate(0,0)"/>
  <path d="M0 0 C0.33 0 0.66 0 1 0 C4.364 16.93 2.378 35.539 -7.047 50.18 C-10.349 54.746 -13.642 58.908 -18 62.5 C-28.096 70.87 -33.529 81.975 -38 94 C-38.362 94.938 -38.724 95.877 -39.098 96.844 C-43.152 109.668 -42.467 126.096 -39 139 C-38.8 139.861 -38.6 140.722 -38.395 141.609 C-36.095 150.067 -31.845 157.732 -27 165 C-23.988 166.133 -23.988 166.133 -20.312 167.125 C-19.112 167.458 -17.912 167.79 -16.676 168.133 C-9.057 169.93 -1.792 170.321 6 170 C6.969 169.968 7.939 169.936 8.938 169.902 C13.436 169.459 16.081 168.866 19.43 165.711 C21.93 162.624 24.22 159.559 26 156 C24.68 156 23.36 156 22 156 C22 155.34 22 154.68 22 154 C23.477 152.812 24.959 151.627 26.492 150.512 C29.861 147.134 30.293 143.092 30.312 138.5 C30.237 134.214 29.905 131.352 27 128 C24.728 126.864 23.485 126.889 20.965 126.895 C4.254 126.684 4.254 126.684 -1.398 122 C-5.384 117.023 -7.066 110.91 -7.625 104.625 C-6.969 100.823 -6.191 99.326 -3.051 97.078 C-0.562 95.77 1.962 94.898 4.625 94 C9.176 92.448 11.548 91.315 14 87 C14.275 86.389 14.549 85.778 14.832 85.148 C16.712 81.004 18.238 78.656 21.984 75.988 C27.235 71.538 27.715 66.647 28.5 60.062 C28.655 58.997 28.809 57.932 28.969 56.834 C29.343 54.225 29.686 51.616 30 49 C34.152 52.049 37.115 55.37 40.188 59.438 C40.406 59.718 40.406 59.718 41.514 61.135 C43.924 64.288 45.739 67.231 47 71 C50 70 50 70 51.824 66.84 C52.456 65.544 53.076 64.243 53.688 62.938 C54.008 62.274 54.328 61.611 54.658 60.928 C55.448 59.289 56.225 57.645 57 56 C57.99 56 58.98 56 60 56 C65.104 61.143 66.779 66.984 67.578 74.008 C68.509 80.609 70.457 85.097 74.438 90.438 C81.132 99.709 84.246 109.321 84.266 120.797 C84.268 121.512 84.269 122.227 84.271 122.963 C84.273 124.466 84.269 125.968 84.261 127.471 C84.25 129.731 84.261 131.99 84.273 134.25 C84.3 157.984 77.038 181.498 60.16 198.84 C59.447 199.553 58.734 200.266 58 201 C57.401 201.682 56.801 202.364 56.184 203.066 C43.933 216.587 24.613 224.327 6.688 225.254 C-17.102 226.064 -35.644 218.343 -53.652 202.695 C-70.385 186.968 -80.528 163.637 -81.336 140.766 C-81.606 121.412 -78.437 106.891 -69 90 C-68.443 89 -67.886 87.999 -67.312 86.969 C-60.818 76.102 -52.651 67.8 -42.277 60.719 C-27.535 50.598 -17.413 37.652 -9 22 C-8.502 21.099 -8.005 20.198 -7.492 19.27 C-4.714 14.038 -2.967 8.911 -1.578 3.152 C-1 1 -1 1 0 0 Z " fill="#2F8ECE" transform="translate(187,76)"/>
  <path d="M0 0 C3.68 1.227 4.383 2.849 6.148 6.184 C8.875 12 9.016 19.951 7 26 C7.66 26 8.32 26 9 26 C11.086 30.172 10.455 35.457 10 40 C8.936 42.528 7.842 43.927 6 46 C6.495 46.33 6.495 46.33 9 48 C7.719 49.707 6.382 51.374 5 53 C4.34 53 3.68 53 3 53 C3 53.66 3 54.32 3 55 C6.63 54.67 10.26 54.34 14 54 C12.05 61.213 8.122 67.816 4 74 C3.34 74 2.68 74 2 74 C1.67 73.67 1.67 73.67 0 72 C-0.224 72.44 -0.224 72.44 -1.355 74.668 C-1.96 75.829 -2.565 76.991 -3.188 78.188 C-3.779 79.336 -4.371 80.485 -4.98 81.668 C-9.499 89.123 -15.929 94.011 -24 97 C-24.99 97 -25.98 97 -27 97 C-25.192 92.202 -22.856 87.705 -20.479 83.172 C-17.043 76.462 -15.643 69.648 -17.789 62.297 C-19.659 57.301 -19.659 57.301 -21 55 C-21.99 54.67 -22.98 54.34 -24 54 C-24.873 54.451 -25.745 54.902 -26.645 55.367 C-33.067 58.492 -40.942 58.879 -48 58 C-52.27 56.309 -55.734 54.245 -59 51 C-59 50.34 -59 49.68 -59 49 C-58.374 48.914 -57.747 48.827 -57.102 48.738 C-54.639 48.315 -52.357 47.836 -50 47 C-47.809 43.757 -47.78 40.848 -48 37 C-49.32 36.835 -49.32 36.835 -56 36 C-56 35.67 -56 35.34 -56 35 C-55.595 34.968 -55.595 34.968 -53.543 34.809 C-44.759 33.837 -39.015 31.299 -32 26 C-31.37 25.551 -30.739 25.103 -30.09 24.641 C-27.307 22.535 -25.987 20.97 -24.562 17.75 C-23 15 -23 15 -19.562 13.938 C-16 14 -16 14 -13.562 15 C-11.265 17.94 -11.727 20.386 -12 24 C-8.719 20.329 -7.251 17.305 -6 12.562 C-4.595 7.646 -3.186 3.982 0 0 Z " fill="#FAFCFD" transform="translate(244,141)"/>
  <path d="M0 0 C2.816 1.1 5.405 2.454 8 4 C8 4.33 8 4.66 8 5 C7.096 5.133 6.193 5.266 5.262 5.402 C4.672 5.491 4.672 5.491 1.688 5.938 C1.102 6.025 1.102 6.025 -1.863 6.465 C-5 7 -5 7 -8 8 C-8 7.01 -8 6.02 -8 5 C-10.31 5.33 -12.62 5.66 -15 6 C-10.299 1.137 -6.901 -1.05 0 0 Z " fill="#4C8BC7" transform="translate(226,166)"/>
  <path d="M0 0 C-1.199 4.397 -2.429 7.098 -6 10 C-6.66 10 -7.32 10 -8 10 C-6.838 5.741 -5.252 0 0 0 Z " fill="#E8F0F7" transform="translate(213,153)"/>
  <path d="M0 0 C3.536 3.173 5.586 5.167 6 10 C4.35 9.67 2.7 9.34 1 9 C0.67 6.03 0.34 3.06 0 0 Z " fill="#E2ECF5" transform="translate(222,136)"/>
  <path d="M0 0 C4.081 0.551 4.913 0.913 8 4 C5.855 4.165 5.855 4.165 -5 5 C-4.67 4.34 -4.34 3.68 -4 3 C-1.938 2.375 -1.938 2.375 0 2 C0 1.34 0 0.68 0 0 Z " fill="#4285C4" transform="translate(226,167)"/>
  <path d="M0 0 C0.66 0.33 1.32 0.66 2 1 C1.008 2.339 0.006 3.671 -1 5 C-1.33 5.443 -1.33 5.443 -3 7.688 C-5 10 -5 10 -8 11 C-6.527 5.991 -3.725 3.482 0 0 Z " fill="#4A8AC6" transform="translate(211,149)"/>
  <path d="M0 0 C1.65 0 3.3 0 5 0 C5.33 1.32 5.66 2.64 6 4 C3.69 4 1.38 4 -1 4 C-0.67 2.68 -0.34 1.36 0 0 Z " fill="#7AA9D5" transform="translate(221,166)"/>
  <path d="M0 0 C0.66 0.33 1.32 0.66 2 1 C-0.31 3.31 -2.62 5.62 -5 8 C-5.33 7.34 -5.66 6.68 -6 6 C-4 4 -2 2 0 0 Z " fill="#1FA6E3" transform="translate(147,135)"/>
</svg>
